<svg xmlns="http://www.w3.org/2000/svg" viewBox="0 0 372.85 407.95"><defs><style>.cls-3{fill:#959ca5}</style><clipPath id="clip-path"><path fill="none" d="M70.02 210.18h233.25v109.89H70.02z"/></clipPath></defs><g id="Layer_2" data-name="Layer 2"><g id="TYPE:_-1" data-name="TYPE: -1"><path d="M233.88 406.09a9.34 9.34 0 0 1-9.18-9.19 9.52 9.52 0 0 1 2.73-6.55 9.08 9.08 0 0 1 6.45-2.63 9 9 0 0 1 9.19 9.18 9.07 9.07 0 0 1-2.64 6.45 9.51 9.51 0 0 1-6.55 2.74zM153.93 347.49h18.18v58.45h-18.18zM186.12 362.86h-10.43v-15.28h10.43v-19.26h18.18v19.26H219v15.28h-14.7v20c0 2.55.61 4.85 2.18 6.3a6.77 6.77 0 0 0 4.73 1.58 9 9 0 0 0 5.58-1.7l5.09 15.76a34.68 34.68 0 0 1-14.55 3.2c-6.42 0-11.39-1.81-15.15-5.57s-6.06-9.82-6.06-16.73zM163.21 343a10.27 10.27 0 0 1-10.09-10.08 10.49 10.49 0 0 1 3-7.19 9.94 9.94 0 0 1 7.08-2.9 9.89 9.89 0 0 1 10.08 10.09 9.94 9.94 0 0 1-2.9 7.08 10.41 10.41 0 0 1-7.17 3z"/></g><g clip-path="url(#clip-path)" id="TYPE:_1" data-name="TYPE: +1"><path class="cls-3" d="M96.24 242.35h1.22c2.81-4.76 8.55-8.55 17.33-8.55a27.9 27.9 0 0 1 20.27 8.8c5.25 5.61 8.54 13.67 8.54 23.07s-3.3 17.33-8.55 22.95a28 28 0 0 1-20.26 8.91c-8.79 0-14.53-3.79-17.33-8.55v31.34H79.14v-84.57h17.1zm14.52 8.54a14.38 14.38 0 0 0-14.52 14.77 14.34 14.34 0 0 0 4.39 10.75 14.57 14.57 0 0 0 10.13 4 14.85 14.85 0 0 0 10.26-4 14.24 14.24 0 0 0 4.27-10.74 14.46 14.46 0 0 0-4.29-10.75 14.85 14.85 0 0 0-10.24-4.03zM209.24 290.21H208c-3.91 4.27-8.43 7.33-16.24 7.32a22.87 22.87 0 0 1-15.38-5.61 19.31 19.31 0 0 1-6.47-14.9 18.67 18.67 0 0 1 6.84-14.64c4.27-3.54 10.13-5.62 17-5.62a42.82 42.82 0 0 1 15.5 2.45v-1.59c0-5.25-4.63-9.4-12-9.4a17.79 17.79 0 0 0-13.67 6.47l-12.45-8.79c6.83-8.18 16-12.09 26.86-12.09 19.53 0 29.54 8.67 29.53 26.37v35.41h-18.28zm0-18.19A30.37 30.37 0 0 0 198 269.7c-6.47 0-9.77 2.93-9.77 7.2s3.42 7 8.43 7a11.88 11.88 0 0 0 12.58-11.9zM251 293l-25.4-57.23h21.12l13.79 33h1.22l13.19-33h20.63L258.06 322H238zM147.33 214.97h18.31v80.61h-18.31z"/></g><g id="Make_Google" data-name="Make Google"><path d="M53.24 0H72l24.75 42.55H98L122.77 0h18.72v87h-18.73V33.92L103 68.56H91.76L72 33.92V87H53.23zM183.06 81.7h-1.22C178 86 173.45 89 165.67 89a22.75 22.75 0 0 1-15.31-5.59 19.24 19.24 0 0 1-6.44-14.83A18.59 18.59 0 0 1 150.73 54c4.25-3.52 10.09-5.59 16.89-5.59a42.74 42.74 0 0 1 15.44 2.44v-1.6c0-5.23-4.62-9.37-11.91-9.37a17.75 17.75 0 0 0-13.62 6.45l-12.39-8.76c6.8-8.14 15.92-12 26.74-12 19.45 0 29.42 8.63 29.41 26.26v35.22h-18.23zm0-18.11a30.15 30.15 0 0 0-11.18-2.31c-6.45 0-9.73 2.92-9.73 7.17s3.4 6.93 8.39 6.93a11.84 11.84 0 0 0 12.52-11.79zM205 0h18.23v44.27h1.22l17-16.78h22.24v1.21l-21.47 20.67 23.7 36.47v1.22h-21.4l-15.19-25.17-6.08 5.84v19.32H205z"/><path d="M318.65 72.6C312.82 82.81 303.45 89 290 89a32.41 32.41 0 0 1-23.09-9 31 31 0 0 1-9.24-22.73 31.75 31.75 0 0 1 31.85-31.73c9.85 0 17.51 3.41 22.49 9s7.66 13.37 7.66 22a30.63 30.63 0 0 1-.25 3.65 7.56 7.56 0 0 0-.12 1.58h-43.92c1.82 7.78 7.9 11.18 14.7 11.18s11.19-3.28 13.74-7.78zm-16.16-23.22a11.47 11.47 0 0 0-3.65-6.32 14.69 14.69 0 0 0-9.36-3.16 13.9 13.9 0 0 0-13.25 9.48zM45.83 145.5h42.91a38.82 38.82 0 0 1 1 8.15c0 12.28-3.65 21.76-10.46 29-7.78 8.26-18.84 13.13-32.94 13.12a47.32 47.32 0 0 1-32.7-12.88 45.93 45.93 0 0 1 0-65.28 47.22 47.22 0 0 1 32.7-12.76C61 104.9 71.72 110.25 80 119l-12.9 12.64c-5.71-5.71-11.42-8.75-21-8.75A26.59 26.59 0 0 0 19 150.36c0 8.26 3 15.07 8 19.81a27.45 27.45 0 0 0 19.45 7.66c7.42 0 13.37-1.94 17.87-6A24.35 24.35 0 0 0 71 161.3H45.83zM123.36 130.25a32.86 32.86 0 0 1 23.1 8.88c5.71 5.59 9 13.61 9 22.85s-3.28 17.14-9 22.73a32.93 32.93 0 0 1-23.09 9 32.51 32.51 0 0 1-23-9c-5.83-5.59-9.11-13.5-9.11-22.73s3.28-17.27 9.12-22.86 13.75-8.87 22.98-8.87zm0 46.44a13.58 13.58 0 0 0 9.72-4 14.53 14.53 0 0 0 4.14-10.7 14.78 14.78 0 0 0-4.13-10.7 13.8 13.8 0 0 0-19.45 0A14.73 14.73 0 0 0 109.5 162a14.55 14.55 0 0 0 4.14 10.7 13.58 13.58 0 0 0 9.72 3.99zM189.12 130.26a32.8 32.8 0 0 1 23.09 8.88c5.71 5.59 9 13.61 9 22.85s-3.28 17.14-9 22.73a33 33 0 0 1-23.1 9 32.42 32.42 0 0 1-23-9c-5.84-5.6-9.12-13.5-9.12-22.74s3.29-17.26 9.12-22.85 13.77-8.87 23.01-8.87zm0 46.44a13.59 13.59 0 0 0 9.73-4A14.54 14.54 0 0 0 203 162a14.76 14.76 0 0 0-4.13-10.7 13.8 13.8 0 0 0-19.45 0 14.76 14.76 0 0 0-4.13 10.7 14.52 14.52 0 0 0 4.13 10.69 13.59 13.59 0 0 0 9.69 4.01zM254.17 220a35.14 35.14 0 0 1-20.42-6 25.75 25.75 0 0 1-10.09-12.28l17.51-6.93a13.58 13.58 0 0 0 13 9.12c8.76 0 14.71-5.83 14.71-16.41v-3.28h-1.21c-3.77 5-9.36 7.54-17 7.54a27.29 27.29 0 0 1-19.08-8.27c-5.35-5.23-8.88-12.89-8.88-22.49s3.53-17.26 8.88-22.61a27.66 27.66 0 0 1 19.09-8.14c7.65 0 13.25 2.55 17 7.54h1.22v-5.6h17.5v54.45c0 9.73-3 18.12-8.63 24S264 220 254.17 220zm.74-44.74a14.37 14.37 0 0 0 9.6-3.64c2.67-2.31 4.38-5.84 4.38-10.58a13.82 13.82 0 0 0-4.38-10.69 14.86 14.86 0 0 0-9.6-3.53 14.54 14.54 0 0 0-9.48 3.52 13.91 13.91 0 0 0-4.5 10.7 13.46 13.46 0 0 0 4.5 10.58 14 14 0 0 0 9.48 3.62zM371.88 177.32c-5.84 10.21-15.2 16.41-28.69 16.41a32.37 32.37 0 0 1-23.09-9 31 31 0 0 1-9.24-22.73 31.74 31.74 0 0 1 31.85-31.72c9.85 0 17.51 3.4 22.49 9s7.66 13.38 7.65 22a30.79 30.79 0 0 1-.24 3.64 7.61 7.61 0 0 0-.12 1.58h-43.88c1.82 7.78 7.9 11.18 14.7 11.18s11.19-3.28 13.74-7.77zm-16.16-23.22a11.5 11.5 0 0 0-3.65-6.32 14.69 14.69 0 0 0-9.36-3.16 13.9 13.9 0 0 0-13.25 9.48zM289.99 105.69h18.23v86.09h-18.23zM53.24 0H72l24.75 42.55H98L122.77 0h18.72v87h-18.73V33.92L103 68.56H91.76L72 33.92V87H53.23zM183.06 81.7h-1.22C178 86 173.45 89 165.67 89a22.75 22.75 0 0 1-15.31-5.59 19.24 19.24 0 0 1-6.44-14.83A18.59 18.59 0 0 1 150.73 54c4.25-3.52 10.09-5.59 16.89-5.59a42.74 42.74 0 0 1 15.44 2.44v-1.6c0-5.23-4.62-9.37-11.91-9.37a17.75 17.75 0 0 0-13.62 6.45l-12.39-8.76c6.8-8.14 15.92-12 26.74-12 19.45 0 29.42 8.63 29.41 26.26v35.22h-18.23zm0-18.11a30.15 30.15 0 0 0-11.18-2.31c-6.45 0-9.73 2.92-9.73 7.17s3.4 6.93 8.39 6.93a11.84 11.84 0 0 0 12.52-11.79z"/><path d="M205 0h18.23v44.27h1.22l17-16.78h22.24v1.21l-21.47 20.67 23.7 36.47v1.22h-21.4l-15.19-25.17-6.08 5.84v19.32H205z"/><path d="M318.65 72.6C312.82 82.81 303.45 89 290 89a32.41 32.41 0 0 1-23.09-9 31 31 0 0 1-9.24-22.73 31.75 31.75 0 0 1 31.85-31.73c9.85 0 17.51 3.41 22.49 9s7.66 13.37 7.66 22a30.63 30.63 0 0 1-.25 3.65 7.56 7.56 0 0 0-.12 1.58h-43.92c1.82 7.78 7.9 11.18 14.7 11.18s11.19-3.28 13.74-7.78zm-16.16-23.22a11.47 11.47 0 0 0-3.65-6.32 14.69 14.69 0 0 0-9.36-3.16 13.9 13.9 0 0 0-13.25 9.48zM45.83 145.5h42.91a38.82 38.82 0 0 1 1 8.15c0 12.28-3.65 21.76-10.46 29-7.78 8.26-18.84 13.13-32.94 13.12a47.32 47.32 0 0 1-32.7-12.88 45.93 45.93 0 0 1 0-65.28 47.22 47.22 0 0 1 32.7-12.76C61 104.9 71.72 110.25 80 119l-12.9 12.64c-5.71-5.71-11.42-8.75-21-8.75A26.59 26.59 0 0 0 19 150.36c0 8.26 3 15.07 8 19.81a27.45 27.45 0 0 0 19.45 7.66c7.42 0 13.37-1.94 17.87-6A24.35 24.35 0 0 0 71 161.3H45.83zM123.36 130.25a32.86 32.86 0 0 1 23.1 8.88c5.71 5.59 9 13.61 9 22.85s-3.28 17.14-9 22.73a32.93 32.93 0 0 1-23.09 9 32.51 32.51 0 0 1-23-9c-5.83-5.59-9.11-13.5-9.11-22.73s3.28-17.27 9.12-22.86 13.75-8.87 22.98-8.87zm0 46.44a13.58 13.58 0 0 0 9.72-4 14.53 14.53 0 0 0 4.14-10.7 14.78 14.78 0 0 0-4.13-10.7 13.8 13.8 0 0 0-19.45 0A14.73 14.73 0 0 0 109.5 162a14.55 14.55 0 0 0 4.14 10.7 13.58 13.58 0 0 0 9.72 3.99zM189.12 130.26a32.8 32.8 0 0 1 23.09 8.88c5.71 5.59 9 13.61 9 22.85s-3.28 17.14-9 22.73a33 33 0 0 1-23.1 9 32.42 32.42 0 0 1-23-9c-5.84-5.6-9.12-13.5-9.12-22.74s3.29-17.26 9.12-22.85 13.77-8.87 23.01-8.87zm0 46.44a13.59 13.59 0 0 0 9.73-4A14.54 14.54 0 0 0 203 162a14.76 14.76 0 0 0-4.13-10.7 13.8 13.8 0 0 0-19.45 0 14.76 14.76 0 0 0-4.13 10.7 14.52 14.52 0 0 0 4.13 10.69 13.59 13.59 0 0 0 9.69 4.01zM254.17 220a35.14 35.14 0 0 1-20.42-6 25.75 25.75 0 0 1-10.09-12.28l17.51-6.93a13.58 13.58 0 0 0 13 9.12c8.76 0 14.71-5.83 14.71-16.41v-3.28h-1.21c-3.77 5-9.36 7.54-17 7.54a27.29 27.29 0 0 1-19.08-8.27c-5.35-5.23-8.88-12.89-8.88-22.49s3.53-17.26 8.88-22.61a27.66 27.66 0 0 1 19.09-8.14c7.65 0 13.25 2.55 17 7.54h1.22v-5.6h17.5v54.45c0 9.73-3 18.12-8.63 24S264 220 254.17 220zm.74-44.74a14.37 14.37 0 0 0 9.6-3.64c2.67-2.31 4.38-5.84 4.38-10.58a13.82 13.82 0 0 0-4.38-10.69 14.86 14.86 0 0 0-9.6-3.53 14.54 14.54 0 0 0-9.48 3.52 13.91 13.91 0 0 0-4.5 10.7 13.46 13.46 0 0 0 4.5 10.58 14 14 0 0 0 9.48 3.62zM371.88 177.32c-5.84 10.21-15.2 16.41-28.69 16.41a32.37 32.37 0 0 1-23.09-9 31 31 0 0 1-9.24-22.73 31.74 31.74 0 0 1 31.85-31.72c9.85 0 17.51 3.4 22.49 9s7.66 13.38 7.65 22a30.79 30.79 0 0 1-.24 3.64 7.61 7.61 0 0 0-.12 1.58h-43.88c1.82 7.78 7.9 11.18 14.7 11.18s11.19-3.28 13.74-7.77zm-16.16-23.22a11.5 11.5 0 0 0-3.65-6.32 14.69 14.69 0 0 0-9.36-3.16 13.9 13.9 0 0 0-13.25 9.48zM289.99 105.69h18.23v86.09h-18.23z"/></g></g></svg>