<svg width="316" height="392" viewBox="0 0 316 392" xmlns="http://www.w3.org/2000/svg" xmlns:xlink="http://www.w3.org/1999/xlink"><title>shield</title><defs><ellipse id="a" cx="102.215" cy="99.207" rx="102.074" ry="98.258"/></defs><g fill="none" fill-rule="evenodd"><path d="M.15 44.194v78.877c0 24.53-.562 48.79 3.802 73.05 4.928 27.648 14.642 54.347 28.158 79.284 27.595 50.959 71.1 92.16 125.586 115.877 54.487-23.853 97.991-64.918 125.586-115.877 13.516-24.937 23.372-51.636 28.3-79.284 4.223-24.26 3.942-48.655 3.942-73.05V44.194L157.837.824.151 44.195z" fill="#4285F4"/><g transform="translate(55.623 85.123)"><mask id="b" fill="#fff"><use xlink:href="#a"/></mask><use fill="#214380" opacity=".5" xlink:href="#a"/><path d="M62.089 63.292c0-21.55 18.162-39.168 40.689-39.168 22.386 0 40.689 17.483 40.689 39.168 0 21.684-18.163 39.167-40.69 39.167-22.385 0-40.688-17.483-40.688-39.167zm40.689 57.057c-42.097.678-78.703 17.348-78.703 37.813v16.805c21.26 17.212 48.714 27.648 78.703 27.648 29.988 0 57.443-10.436 78.702-27.648v-16.805c0-20.465-36.606-37.135-78.702-37.813z" fill="#FFF" mask="url(#b)"/></g></g></svg>